<svg xmlns="http://www.w3.org/2000/svg" xmlns:xlink="http://www.w3.org/1999/xlink" xmlns:lucid="lucid" width="1360" height="1760"><g transform="translate(0 0)" lucid:page-tab-id=".Q4MUjXso07N"><path d="M0 0h1360v1760H0z" fill="#fff"/><path d="M262.78 195a5 5 0 0 1 5-5h843.7a5 5 0 0 1 5 5v1030a5 5 0 0 1-5 5h-843.7a5 5 0 0 1-5-5z" stroke="#333" fill-opacity="0"/><use xlink:href="#a" transform="matrix(1,0,0,1,270.77714043713297,198) translate(356.4074074074074 15.11111111111111)"/><path d="M119.75 492.82c0 10.9-8.84 19.75-19.75 19.75-10.9 0-19.75-8.84-19.75-19.75 0-10.9 8.84-19.75 19.75-19.75 10.9 0 19.75 8.85 19.75 19.75z" stroke="#9391ff" fill="#fff"/><path d="M100 512.57v50.3a17.25 17.25 0 0 0 2.67 9.23L140 631.07m-40-63.2l-40 63.2m0-98.75h80" stroke="#9391ff" fill="none"/><path d="M60 478.07a5 5 0 0 1 5-5h70a5 5 0 0 1 5 5v170a5 5 0 0 1-5 5H65a5 5 0 0 1-5-5z" fill="none"/><use xlink:href="#b" transform="matrix(1,0,0,1,-20,631.074291800989) translate(94.96296296296296 14.888888888888888)"/><path d="M440 430c0 33.14-35.82 60-80 60s-80-26.86-80-60 35.82-60 80-60 80 26.86 80 60z" stroke="#fff" fill="#3278cc"/><use xlink:href="#c" transform="matrix(1,0,0,1,304,393.9989633254834) translate(20.148148148148138 39.55555555555556)"/><use xlink:href="#d" transform="matrix(1,0,0,1,304,393.9989633254834) translate(58.46913580246913 39.55555555555556)"/><path d="M440 664.25c0 33.14-35.82 60-80 60s-80-26.86-80-60 35.82-60 80-60 80 26.86 80 60z" stroke="#fff" fill="#3278cc"/><use xlink:href="#e" transform="matrix(1,0,0,1,304,628.2494816627542) translate(11.802469135802461 39.55555555555556)"/><use xlink:href="#f" transform="matrix(1,0,0,1,304,628.2494816627542) translate(66.81481481481481 39.55555555555556)"/><path d="M440 898.5c0 33.14-35.82 60-80 60s-80-26.86-80-60 35.82-60 80-60 80 26.86 80 60z" stroke="#fff" fill="#3278cc"/><use xlink:href="#g" transform="matrix(1,0,0,1,304,862.500000000025) translate(11.802469135802461 39.55555555555556)"/><use xlink:href="#f" transform="matrix(1,0,0,1,304,862.500000000025) translate(66.81481481481481 39.55555555555556)"/><path d="M1013.9 270c0 33.14-35.83 60-80 60-44.2 0-80-26.86-80-60s35.8-60 80-60c44.17 0 80 26.86 80 60z" stroke="#fff" fill="#3278cc"/><use xlink:href="#h" transform="matrix(1,0,0,1,877.887423060977,233.99896332548343) translate(39.30864197530864 39.55555555555556)"/><path d="M253.15 77a8 8 0 0 1 8-8h836.75a8 8 0 0 1 8 8v25.16a8 8 0 0 1-8 8H261.15a8 8 0 0 1-8-8z" stroke="#000" stroke-opacity="0" stroke-width="2" fill="#fff" fill-opacity="0"/><use xlink:href="#i" transform="matrix(1,0,0,1,273.14655278534315,68.99999999994924) translate(298.4748148148148 27.584444444444443)"/><use xlink:href="#j" transform="matrix(1,0,0,1,273.14655278534315,68.99999999994924) translate(353.76 27.584444444444443)"/><use xlink:href="#k" transform="matrix(1,0,0,1,273.14655278534315,68.99999999994924) translate(419.31555555555553 27.584444444444443)"/><path d="M529.6 108.8h309.14M529.6 108.8h-1M838.72 108.8h1.02" stroke="#a9afb8" stroke-width="2" fill="none"/><path d="M253.15 118.16a8 8 0 0 1 8-8h837.7a8 8 0 0 1 8 8V121a8 8 0 0 1-8 8h-837.7a8 8 0 0 1-8-8z" stroke="#000" stroke-opacity="0" stroke-width="2" fill="#fff" fill-opacity="0"/><use xlink:href="#l" transform="matrix(1,0,0,1,273.1465527853436,110.15522395684805) translate(318.02234567901235 14.917037037037037)"/><use xlink:href="#m" transform="matrix(1,0,0,1,273.1465527853436,110.15522395684805) translate(350.9943621399177 14.917037037037037)"/><use xlink:href="#n" transform="matrix(1,0,0,1,273.1465527853436,110.15522395684805) translate(373.85382716049384 14.917037037037037)"/><use xlink:href="#o" transform="matrix(1,0,0,1,273.1465527853436,110.15522395684805) translate(386.30331275720164 14.917037037037037)"/><use xlink:href="#p" transform="matrix(1,0,0,1,273.1465527853436,110.15522395684805) translate(451.61 14.917037037037037)"/><use xlink:href="#q" transform="matrix(1,0,0,1,273.1465527853436,110.15522395684805) translate(468.6058847736625 14.917037037037037)"/><path d="M580 270c0 33.14-35.82 60-80 60s-80-26.86-80-60 35.82-60 80-60 80 26.86 80 60z" stroke="#fff" fill="#3278cc"/><use xlink:href="#c" transform="matrix(1,0,0,1,444,233.99896332548343) translate(11.802469135802461 39.55555555555556)"/><use xlink:href="#r" transform="matrix(1,0,0,1,444,233.99896332548343) translate(50.123456790123456 39.55555555555556)"/><path d="M1013.9 430c0 33.14-35.83 60-80 60-44.2 0-80-26.86-80-60s35.8-60 80-60c44.17 0 80 26.86 80 60z" stroke="#fff" fill="#3278cc"/><use xlink:href="#s" transform="matrix(1,0,0,1,877.887423060977,393.9989633254834) translate(11.802469135802461 39.55555555555556)"/><use xlink:href="#t" transform="matrix(1,0,0,1,877.887423060977,393.9989633254834) translate(66.81481481481481 39.55555555555556)"/><path d="M720 590c0 33.14-35.82 60-80 60s-80-26.86-80-60 35.82-60 80-60 80 26.86 80 60z" stroke="#fff" fill="#3278cc"/><use xlink:href="#e" transform="matrix(1,0,0,1,584,554) translate(11.802469135802461 39.55555555555556)"/><use xlink:href="#u" transform="matrix(1,0,0,1,584,554) translate(66.81481481481481 39.55555555555556)"/><path d="M720 750c0 33.14-35.82 60-80 60s-80-26.86-80-60 35.82-60 80-60 80 26.86 80 60z" stroke="#fff" fill="#3278cc"/><use xlink:href="#e" transform="matrix(1,0,0,1,584,714) translate(11.802469135802461 39.55555555555556)"/><use xlink:href="#v" transform="matrix(1,0,0,1,584,714) translate(66.81481481481481 39.55555555555556)"/><path d="M720 910c0 33.14-35.82 60-80 60s-80-26.86-80-60 35.82-60 80-60 80 26.86 80 60z" stroke="#fff" fill="#3278cc"/><use xlink:href="#w" transform="matrix(1,0,0,1,584,874) translate(9.333333333333329 28.888888888888886)"/><use xlink:href="#x" transform="matrix(1,0,0,1,584,874) translate(64.34567901234568 28.888888888888886)"/><use xlink:href="#y" transform="matrix(1,0,0,1,584,874) translate(17.679012345679006 50.22222222222222)"/><use xlink:href="#z" transform="matrix(1,0,0,1,584,874) translate(60.93827160493827 50.22222222222222)"/><path d="M720 1070c0 33.14-35.82 60-80 60s-80-26.86-80-60 35.82-60 80-60 80 26.86 80 60z" stroke="#fff" fill="#3278cc"/><use xlink:href="#A" transform="matrix(1,0,0,1,584,1034) translate(17.679012345679006 18.22222222222222)"/><use xlink:href="#B" transform="matrix(1,0,0,1,584,1034) translate(56 18.22222222222222)"/><use xlink:href="#C" transform="matrix(1,0,0,1,584,1034) translate(15.209876543209873 39.55555555555556)"/><use xlink:href="#D" transform="matrix(1,0,0,1,584,1034) translate(58.46913580246914 39.55555555555556)"/><use xlink:href="#z" transform="matrix(1,0,0,1,584,1034) translate(39.30864197530864 60.88888888888889)"/><path d="M279.1 430.3L140.4 532.15" stroke="#333" fill="none"/><path d="M279.5 430V430.6l-.12.1-.6-.8.74-.54zM140.7 532.55l-2.82 2.08-.6-.8 1.37-1H140v-1l.12-.08z" stroke="#333" stroke-width=".05" fill="#333"/><path d="M419.14 270.34L140.36 532.1" stroke="#333" fill="none"/><path d="M419.5 270v.67l-.03.04-.7-.7.75-.7zM140.72 532.47l-2.56 2.4-.7-.73 1.42-1.32H140v-1h-.06l.1-.08z" stroke="#333" stroke-width=".05" fill="#333"/><path d="M279.14 663.9L140.36 532.8" stroke="#333" fill="none"/><path d="M279.52 663.58l-.02.66v.7l-.72-.68.7-.73zM140.72 532.44l-.7.73-.36-.35h.34v-1h-1.4l-1.12-1.06.68-.73z" stroke="#333" stroke-width=".05" fill="#333"/><path d="M279.32 898.03l-139.14-365.1" stroke="#333" fill="none"/><path d="M279.5 898.5v.4l.05 1.13-.7-1.83.67-.25zM140.65 532.76l-.94.35-.1-.28h.4v-1h-.78l-.76-2 .94-.35zM582.5 270.5H581v-1h1.5zm5.04 0h-3.02v-1h3.02zm5.04 0h-3.02v-1h3.02zm5.03 0h-3v-1h3zm5.05 0h-3.02v-1h3.02zm5.03 0h-3.02v-1h3.02zm5.04 0h-3.02v-1h3.02zm5.03 0h-3.02v-1h3.02zm5.04 0h-3.03v-1h3.02zm5.03 0h-3.03v-1h3.03zm5.03 0h-3.02v-1h3.02zm5.03 0h-3.03v-1h3.02zm5.03 0h-3.02v-1h3.03zm5.04 0h-3.03v-1h3.02zm5.03 0h-3.02v-1H653zm5.03 0H655v-1h3.03zm5.04 0h-3.02v-1h3.02zm5.03 0h-3.02v-1h3.02zm2.1 0h-.08v-1h.07zm98.6 0h-3.02v-1h3.02zm5.04 0h-3.02v-1h3.02zm5.03 0h-3.02v-1h3.02zm5.04 0h-3v-1h3zm5.04 0h-3.02v-1h3.02zm5.04 0h-3.02v-1h3.02zm5.03 0h-3v-1h3zm5.05 0h-3.02v-1h3.02zm5.03 0h-3.02v-1h3.02zm5.04 0h-3.02v-1h3.02zm5.03 0h-3.02v-1h3.02zm5.04 0h-3.03v-1h3.02zm5.02 0h-3.02v-1h3.02zm5.04 0h-3.02v-1h3.02zm5.03 0h-3.03v-1h3.02zm5.03 0h-3.02v-1h3.03zm5.03 0h-3.02v-1h3.02zm3.53 0h-1.52v-1h1.5zm-89.13 0h-.08v-1h.07z" stroke="#333" stroke-width=".05" fill="#333"/><path d="M581 270.5h-.5v-1h.5z" fill="#333"/><path d="M581.04 270.52h-.58v-1.05h.58zm-.52-1v.95h.47v-.95z" stroke="#333" stroke-width=".05" fill="#333"/><path d="M853.4 270v.5h-.52v-1h.52z" fill="#333"/><path d="M853.4 270v.4l.02.12h-.57v-1.05h.58zm-.5-.48v.95h.47v-.96z" stroke="#333" stroke-width=".05" fill="#333"/><use xlink:href="#E" transform="matrix(1,0,0,1,670.1937115304886,259.1989633254834) translate(0.005000000000002558 14.4)"/><path d="M853.2 429.3l-.5.88-1.3-.76.52-.86zm-3-1.75l-.5.86-2.6-1.5.5-.87zm-4.3-2.53l-.52.87-2.58-1.53.5-.86zm-4.32-2.52l-.5.86-2.6-1.5.52-.88zm-4.3-2.52l-.5.86-2.6-1.52.52-.86zm-4.3-2.53l-.5.86-2.6-1.5.5-.86zm-4.3-2.52l-.52.86-2.58-1.53.5-.86zm-4.32-2.53l-.5.86-2.6-1.5.52-.87zm-4.3-2.52l-.5.86-2.6-1.5.5-.88zm-4.3-2.53l-.5.87-2.6-1.52.5-.86zm-4.3-2.52l-.52.86-2.58-1.52.5-.87zm-4.32-2.53l-.5.87-2.6-1.52.52-.86zm-4.3-2.52l-.5.86-2.6-1.5.5-.88zm-4.3-2.52l-.5.86-2.6-1.52.5-.86zm-4.3-2.53l-.52.86-2.58-1.52.5-.86zm-4.32-2.52l-.5.87-2.6-1.5.52-.88zm-4.3-2.52l-.5.87-2.6-1.52.5-.86zm-4.3-2.52l-.52.86-2.58-1.5.5-.88zm-4.32-2.53l-.5.87-2.6-1.52.52-.86zm-4.3-2.52l-.5.87-2.6-1.5.5-.88zm-4.3-2.52l-.5.87-2.6-1.52.5-.86zm-4.3-2.52l-.52.86-2.58-1.5.5-.87zm-4.32-2.52l-.5.86-2.6-1.5.52-.88zm-4.3-2.53l-.5.88-2.6-1.52.5-.86zm-4.3-2.5l-.5.85-2.6-1.5.5-.88zm-4.3-2.54l-.52.87-2.58-1.52.5-.85zm-4.32-2.52l-.5.86-2.6-1.5.52-.88zm-4.3-2.52l-.5.86-2.6-1.52.28-.46h.9zM699.5 339.2h-1.97l-1.1-.66.5-.86zm-4.3-2.53l-.5.86-2.6-1.5.52-.87zm-4.3-2.52l-.5.86-2.6-1.5.5-.87zm-4.3-2.53l-.5.87-2.6-1.53.5-.86zm-4.3-2.52l-.52.86-2.58-1.5.5-.88zm-4.32-2.53l-.5.87-2.6-1.52.52-.86zm-4.3-2.52l-.5.86-2.6-1.5.5-.86zm-4.3-2.52l-.52.86-2.58-1.53.5-.86zm-4.32-2.53l-.5.86-2.58-1.5.5-.87zm-4.3-2.52l-.5.86-2.6-1.5.52-.88zm-4.3-2.53l-.5.87-2.6-1.52.5-.86zm-4.3-2.52l-.52.86-2.58-1.52.5-.87zm-4.32-2.53l-.5.87-2.6-1.52.52-.86zm-4.3-2.52l-.5.86-2.6-1.5.5-.88zm-4.3-2.52l-.5.86-2.6-1.52.5-.86zm-4.3-2.53l-.52.86-2.58-1.52.5-.86zm-4.32-2.52l-.5.87-2.6-1.52.52-.86zm-4.3-2.52l-.5.87-2.6-1.52.5-.86zm-4.3-2.52l-.5.86-2.6-1.5.5-.88zm-4.3-2.53l-.52.87-2.58-1.52.5-.86zm-4.32-2.52l-.5.87-2.6-1.5.52-.88zm-4.3-2.5l-.5.85-2.6-1.52.5-.86zm-4.3-2.54l-.52.86-2.58-1.5.5-.87zm-4.32-2.52l-.5.86-2.6-1.52.52-.86zm-4.3-2.53l-.5.87-1.3-.75.5-.87z" stroke="#333" stroke-width=".05" fill="#333"/><path d="M853.4 429.43V430.57l-.7-.4.5-.87z" fill="#333"/><path d="M853.43 429.42l-.02.57v.4l.02.23-.76-.45.53-.9zm-.7.74l.64.38v-1.11l-.16-.1z" stroke="#333" stroke-width=".05" fill="#333"/><path d="M596.55 274.03l-4.7 8-9.95-11.2z" fill="#333"/><path d="M597.33 273.7l-5.4 9.18L580.5 270zm-5.56 7.5l4-6.82-12.48-2.74z" stroke="#333" stroke-width=".05" fill="#333"/><use xlink:href="#F" transform="matrix(1,0,0,1,672.6937115304886,339.19896332548336) translate(0.005000000000002558 14.4)"/><path d="M360.23 603.3l.68-1.33m.93-1.78l1.36-2.68m.9-1.78l1.37-2.67m.92-1.8l1.36-2.66m.9-1.77l1.38-2.67m.9-1.78l1.38-2.67m.9-1.77l1.38-2.67m.9-1.78l1.38-2.68m.9-1.78l1.38-2.67m.9-1.78l1.38-2.67m.9-1.78l1.38-2.67m.9-1.78L386 553m.92-1.8l1.37-2.66m.9-1.78l1.37-2.67m.9-1.8l1.38-2.66m.9-1.78l1.38-2.67m.9-1.8l1.38-2.66m.92-1.8l1.37-2.66m.9-1.78l1.37-2.67m.9-1.78l1.38-2.67m.92-1.78l1.36-2.67m.92-1.78l1.36-2.68m.93-1.78l1.37-2.68m.9-1.78l1.38-2.67m.9-1.78l1.38-2.68m.9-1.78l1.38-2.67m.9-1.8l1.38-2.66m.9-1.77l1.38-2.67m.9-1.78l1.38-2.67m.9-1.77l1.38-2.67m.92-1.78l1.36-2.68m.92-1.78l1.37-2.67m.9-1.78l1.38-2.67m.92-1.78l1.37-2.67m.9-1.78l1.37-2.67m.9-1.8l1.38-2.66m.9-1.78l1.38-2.67m.9-1.8l1.38-2.66m.92-1.78l1.37-2.67m.9-1.8l1.37-2.67m.92-1.77l1.35-2.68m.92-1.78l1.37-2.67m.9-1.78l1.38-2.67m.9-1.78l1.38-2.67m.9-1.78l1.38-2.68m.9-1.78l1.38-2.68m.9-1.78l1.38-2.67m.9-1.78l1.38-2.68m.9-1.78l1.38-2.67m.92-1.78l1.36-2.7m.92-1.77l1.36-2.67m.92-1.78l1.37-2.67m.9-1.77l1.38-2.67m.9-1.78l1.38-2.68m.92-1.77l1.37-2.68m.9-1.78l1.37-2.67m.9-1.78l1.38-2.67m.9-1.78l1.38-2.67m.92-1.78l.68-1.34" stroke="#333" fill="none"/><path d="M360.68 603.52l-.13.25-.54-.02h-.56l.35-.68z" stroke="#333" stroke-width=".05" fill="#333"/><path d="M499.26 331.94l-2.38 14.8-8.25-4.22z" stroke="#333" fill="#333"/><path d="M396.45 844.04l.3-1.48m.4-1.97l.6-2.96m.4-1.97l.58-2.96m.4-1.96l.6-2.96m.4-1.96l.6-2.96m.4-1.97l.58-2.97m.4-1.97l.6-2.95m.4-1.96l.6-2.96m.4-1.97l.6-2.94m.4-1.97l.58-2.97m.4-1.97l.6-2.95m.4-1.96l.6-2.96m.4-1.97l.58-2.94m.4-1.98l.6-2.95m.4-1.97l.6-2.96m.4-1.97l.58-2.95m.4-1.97l.6-2.95m.4-1.97l.6-2.95m.4-1.97l.58-2.96m.4-1.97l.6-2.95m.4-1.97l.6-2.95m.4-1.97l.58-2.96m.4-1.97l.6-2.95m.4-1.97l.6-2.96m.4-1.97l.58-2.95m.4-1.97l.6-2.96m.4-1.97l.6-2.95m.4-1.97l.58-2.96m.4-1.97l.6-2.95m.4-1.97l.6-2.96m.4-1.97l.58-2.96m.4-1.97l.6-2.96m.4-1.97l.6-2.96m.4-1.97l.58-2.95m.4-1.97l.6-2.96m.4-1.98l.6-2.95m.38-1.97l.6-2.96m.4-1.97l.6-2.95m.4-1.97l.6-2.96m.38-1.98l.6-2.95m.4-1.98l.6-2.96m.4-1.97l.6-2.96m.38-1.96l.6-2.95m.4-1.98l.6-2.96m.4-1.97l.6-2.96m.38-1.97l.6-2.96m.4-1.96l.6-2.95m.4-1.98l.6-2.96m.38-1.97l.6-2.96m.4-1.98l.6-2.95m.4-1.96l.6-2.96m.38-1.97l.6-2.94m.4-1.97l.6-2.97m.4-1.97l.6-2.95m.38-1.96l.6-2.96m.4-1.97l.6-2.94m.4-1.97l.6-2.97m.38-1.97l.6-2.95m.4-1.96l.6-2.96m.4-1.97l.6-2.94m.38-1.98l.6-2.95m.4-1.97l.6-2.96m.4-1.97l.58-2.95m.4-1.97l.6-2.95m.4-1.97l.6-2.95m.4-1.97l.58-2.96m.4-1.97l.6-2.95m.4-1.97l.6-2.95m.4-1.97l.58-2.95m.4-1.98l.6-2.95m.4-1.97l.6-2.96m.4-1.97l.58-2.95m.4-1.97l.6-2.96m.4-1.97l.6-2.95m.4-1.97l.58-2.96m.4-1.97l.6-2.95m.4-1.97l.6-2.96m.4-1.97l.58-2.95m.4-1.98l.6-2.95m.4-1.97l.6-2.96m.4-1.97l.58-2.95m.4-1.97l.6-2.96m.4-1.98l.6-2.95m.4-1.97l.58-2.96m.4-1.97l.6-2.95m.4-1.97l.6-2.96m.38-1.98l.6-2.96m.4-1.96l.6-2.96m.4-1.97l.6-2.96m.38-1.96l.6-2.95m.4-1.98l.6-2.96m.4-1.97l.6-2.96m.38-1.97l.6-2.96m.4-1.96l.6-2.95m.4-1.98l.6-2.96m.38-1.97l.6-2.97m.4-1.96l.6-2.96m.4-1.96l.6-2.96m.38-1.97l.6-2.94m.4-1.97l.6-2.97m.4-1.97l.6-2.95m.38-1.96l.3-1.48" stroke="#333" fill="none"/><path d="M396.94 844.13l-.12.57-.95-.34.1-.43z" stroke="#333" stroke-width=".05" fill="#333"/><path d="M499.68 332.08l1.72 14.9-9.08-1.83z" stroke="#333" fill="#333"/><path d="M559.08 590.26l-1.26.8m-1.68 1.03l-2.5 1.56m-1.68 1.05l-2.5 1.57m-1.7 1.05l-2.5 1.57m-1.68 1.03l-2.5 1.57m-1.68 1.04l-2.5 1.57m-1.7 1.06l-2.5 1.56m-1.68 1.05l-2.5 1.57m-1.68 1.04l-2.52 1.57m-1.67 1.04l-2.5 1.56m-1.7 1.05l-2.5 1.57m-1.68 1.05l-2.5 1.57m-1.68 1.03l-2.53 1.57m-1.67 1.04l-2.5 1.57m-1.7 1.06l-2.5 1.56m-1.67 1.05l-2.52 1.57m-1.66 1.04l-2.5 1.57m-1.7 1.04l-2.5 1.56m-1.68 1.05l-2.5 1.57m-1.68 1.05l-2.5 1.56m-1.7 1.05l-2.5 1.57m-1.68 1.04l-2.5 1.57m-1.68 1.06l-2.52 1.56m-1.67 1.05l-2.5 1.56m-1.7 1.05l-2.5 1.57m-1.67 1.04l-1.26.78" stroke="#333" fill="none"/><path d="M559.5 590V590.57l-.17.12-.53-.85.72-.45z" stroke="#333" stroke-width=".05" fill="#333"/><path d="M441.87 663.4l9.65-11.5 4.9 7.87z" stroke="#333" fill="#333"/><path d="M559.1 749.7l-1.22-.87m-1.62-1.17l-2.43-1.75m-1.62-1.15L549.8 743m-1.62-1.17l-2.43-1.75m-1.62-1.17l-2.42-1.74m-1.62-1.17l-2.43-1.76m-1.62-1.17l-2.42-1.75m-1.62-1.17l-2.43-1.75m-1.62-1.16l-2.42-1.75m-1.62-1.18l-2.43-1.75m-1.62-1.17l-2.42-1.75m-1.62-1.17l-2.43-1.75m-1.62-1.17l-2.42-1.75m-1.62-1.16l-2.43-1.75m-1.62-1.17l-2.42-1.76m-1.62-1.16l-2.43-1.75m-1.62-1.16l-2.42-1.76m-1.62-1.17l-2.43-1.75m-1.62-1.17L485 696.3m-1.62-1.17l-2.43-1.75m-1.62-1.17l-2.42-1.74m-1.62-1.16l-2.43-1.75m-1.62-1.17l-2.42-1.75m-1.62-1.17l-2.43-1.75m-1.62-1.16l-2.42-1.75m-1.62-1.18l-2.43-1.75M455 674.7l-1.2-.87" stroke="#333" fill="none"/><path d="M559.52 749.4l-.02.6v.62l-.7-.5.58-.83z" stroke="#333" stroke-width=".05" fill="#333"/><path d="M441.8 665.2l14.3 4.57-5.42 7.53z" stroke="#333" fill="#333"/><path d="M559 909.95l-1.46-.14m-1.94-.18l-2.92-.28m-1.95-.2l-2.92-.27m-1.94-.2l-2.92-.27m-1.94-.2l-2.92-.27m-1.95-.2l-2.92-.27m-1.94-.2l-2.92-.27m-1.94-.2l-2.92-.28m-1.95-.2l-2.92-.27m-1.94-.2l-2.9-.27m-1.96-.2l-2.92-.27m-1.95-.18l-2.92-.28m-1.94-.2l-2.9-.27m-1.96-.2l-2.92-.27m-1.95-.2l-2.92-.27m-1.93-.2l-2.92-.27m-1.95-.2l-2.92-.27m-1.95-.2l-2.92-.28m-1.93-.2l-2.92-.27m-1.95-.2l-2.92-.27m-1.95-.2l-2.92-.27m-1.93-.18l-1.46-.14" stroke="#333" fill="none"/><path d="M559.5 909.5v1l-.56-.05.1-1z" stroke="#333" stroke-width=".05" fill="#333"/><path d="M442.1 898.66l14.66-3.25-.9 9.24z" stroke="#333" fill="#333"/><path d="M559.2 1069.6l-.85-1.25m-1.15-1.66l-1.73-2.5m-1.15-1.66l-1.73-2.5m-1.16-1.65l-1.72-2.5m-1.15-1.66l-1.73-2.5m-1.15-1.65l-1.74-2.5m-1.15-1.65l-1.72-2.5m-1.15-1.65l-1.73-2.5m-1.15-1.65l-1.72-2.5m-1.16-1.65l-1.72-2.5m-1.15-1.65l-1.73-2.5m-1.15-1.65l-1.73-2.5m-1.16-1.64l-1.73-2.5m-1.14-1.65l-1.73-2.48m-1.15-1.66l-1.73-2.5m-1.15-1.65l-1.72-2.48m-1.15-1.66l-1.73-2.5m-1.15-1.64l-1.73-2.5m-1.15-1.65l-1.73-2.5m-1.15-1.65l-1.74-2.5m-1.15-1.65l-1.7-2.5m-1.17-1.65l-1.72-2.5m-1.14-1.64l-1.73-2.5m-1.15-1.65l-1.73-2.5M491 971.3l-1.73-2.5m-1.15-1.65l-1.73-2.5m-1.16-1.65l-1.72-2.5m-1.15-1.64l-1.73-2.5m-1.15-1.65l-1.74-2.5m-1.15-1.66l-1.72-2.5m-1.15-1.65l-1.73-2.5m-1.15-1.66l-1.73-2.5m-1.15-1.65l-1.72-2.5m-1.15-1.65l-1.73-2.5m-1.15-1.65l-1.73-2.5m-1.16-1.65l-1.73-2.5m-1.14-1.65l-1.73-2.5m-1.15-1.65l-1.72-2.5m-1.16-1.64l-.86-1.24" stroke="#333" fill="none"/><path d="M559.5 1070v.4l.02.5-.72-1.04.72-.5z" stroke="#333" stroke-width=".05" fill="#333"/><path d="M441.42 899.83l11.94 9.08-7.6 5.3z" stroke="#333" fill="#333"/><path d="M1140 669.07a8 8 0 0 1 8-8h104a8 8 0 0 1 8 8v83a8 8 0 0 1-8 8h-104a8 8 0 0 1-8-8z" fill="#fff"/><path d="M1140.55 666.22l.32-.78.66-1.07.27-.32m1.18-1.18l.32-.27 1.07-.65.77-.32m1.6-.46l1.26-.1h1.5m1.97 0h2.97m1.98 0h2.97m1.97 0h2.97m1.98 0h2.98m1.98 0h2.97m1.98 0h2.97m1.98 0h2.97m1.98 0h2.97m2 0h2.96m1.98 0h2.97m2 0h2.96m1.98 0h2.97m2 0h2.97m1.98 0h2.97m1.98 0h2.97m1.98 0h2.97m1.98 0h2.98m1.98 0h2.97m1.98 0h2.98m1.98 0h2.97m1.98 0h1.5l1.25.1m1.6.46l.78.32 1.07.65.32.27m1.18 1.18l.27.32.66 1.07.32.78m.45 1.6l.1 1.25v1.47m0 1.95v2.92m0 1.95v2.93m0 1.96v2.93m0 1.94v2.93m0 1.95v2.93m0 1.95v2.93m0 1.96v2.92m0 1.95v2.93m0 1.95v2.93m0 1.95v2.93m0 1.96v2.92m0 1.96v2.93m0 1.95V734m0 1.96v2.93m0 1.95v2.92m0 1.96v2.93m0 1.95v1.47l-.1 1.26m-.45 1.6l-.32.78-.66 1.08-.27.32m-1.18 1.17l-.32.28-1.07.65-.77.32m-1.6.46l-1.26.1h-1.5m-1.97 0h-2.97m-1.98 0h-2.97m-1.97 0h-2.97m-1.98 0h-2.98m-1.98 0h-2.97m-1.98 0h-2.97m-1.98 0h-2.97m-1.98 0h-2.97m-2 0h-2.96m-1.98 0H1201m-2 0h-2.96m-1.98 0h-2.97m-2 0h-2.97m-1.98 0h-2.97m-1.98 0h-2.97m-1.98 0h-2.97m-1.98 0h-2.98m-1.98 0h-2.97m-1.98 0h-2.98m-1.98 0h-2.97m-1.98 0h-1.5l-1.25-.1m-1.6-.46l-.78-.32-1.07-.65-.32-.27m-1.18-1.18l-.27-.32-.66-1.07-.32-.77m-.45-1.6l-.1-1.26v-1.46m0-1.94v-2.93m0-1.96v-2.92m0-1.96v-2.94m0-1.95v-2.92m0-1.95v-2.93m0-1.96v-2.92m0-1.96v-2.93m0-1.95v-2.93m0-1.95v-2.93m0-1.95v-2.93m0-1.97v-2.93m0-1.95v-2.93m0-1.95v-2.93m0-1.95v-2.94m0-1.96v-2.93m0-1.95v-2.93m0-1.96v-1.47l.1-1.25" stroke="#333" fill="none"/><g><use xlink:href="#G" transform="matrix(1,0,0,1,1148,669.0742918009129) translate(39.05 45.1)"/></g><path d="M1139.36 710.1l-124.84-439.62" stroke="#333" fill="none"/><path d="M1139.5 712.4l-.62-2.18.62-.18zM1015 270.36l-.63.18.02-.53v-.4l-.08-1.67z" stroke="#333" stroke-width=".05" fill="#333"/><path d="M441 664.28l698 46.26" stroke="#333" fill="none"/><path d="M441.05 663.78l-.07 1-.5-.03.02-.5v-.5zM1139.5 710.07v1l-.55-.03.07-1z" stroke="#333" stroke-width=".05" fill="#333"/><path d="M440.98 898.37l698.04-187.67" stroke="#333" fill="none"/><path d="M441.13 898.85l-.65.17.02-.5v-.54l.37-.1zM1139.5 711.1l-.37.1-.26-.98.63-.16z" stroke="#333" stroke-width=".05" fill="#333"/><path d="M720.95 909.8l418.1-199" stroke="#333" fill="none"/><path d="M721.18 910.23l-.7.33.02-.55v-.55l.25-.12zM1139.5 711.13l-.25.12-.43-.9.68-.33z" stroke="#333" stroke-width=".05" fill="#333"/><path d="M720.88 1069.67l418.24-358.77" stroke="#333" fill="none"/><path d="M721.2 1070.05l-.72.63.02-.67v-.65l.06-.06zM1139.5 711.23l-.06.06-.65-.77.7-.6z" stroke="#333" stroke-width=".05" fill="#333"/><defs><path fill="#333" d="M141-257c46-3 22 61 17 87h45v-104c3-10 24-3 35-5 3 0 4 2 4 5V40c-2 11-23 3-34 5-3 0-5-2-5-5v-175h-59C119-88 85-50 37-24c-10-5-24-22-17-32 52-34 98-80 107-155 0-11-1-13-11-13H37c-9-1-8-31 0-33h104zM312 53c-3 11-25 3-36 5-3 0-5-2-5-5v-333c3-11 25-3 36-5 3 0 5 2 5 5V53" id="H"/><path fill="#333" d="M144-261c-17 93 16 155 68 195 7 12-11 36-26 31-26-23-52-52-66-87-17 38-42 75-72 99-13 10-21-11-29-16-4-3-4-7 1-11 51-48 84-112 82-212 4-9 36-7 42 1zm111-19c4-10 25-3 37-5 3 0 5 2 5 5V52c-3 11-25 3-37 5-3 1-5-3-5-5v-332" id="I"/><path fill="#333" d="M17-92c-8-1-9-29 0-33h35v-103c-12-2-34 5-37-5 1-10-4-28 6-28h183c9 0 4 18 5 28 1 9-18 3-28 5v98c14 0 32-8 42-1 0 10 7 27-3 29C159-92 87-90 17-92zm314-83c9 3 7 32 0 35h-49v93c-3 11-25 3-37 5-3 0-5-2-5-5v-233c3-11 25-3 37-5 3 0 5 2 5 5v105h49zM291 16c9 5 8 33 0 35H100C53 54 80-14 73-51c3-11 24-4 36-6 3 0 5 3 5 6v61c0 4 2 7 7 6h170zM92-125l50-2v-101H92v103" id="J"/><path fill="#333" d="M187-138c-9-5-8-33 0-35h74v-107c3-11 25-3 37-5 3 0 5 2 5 5V52c-3 11-25 3-37 5-3 0-5-2-5-5v-190h-74zm2 112c-35-17-56-56-73-91-17 38-40 75-71 98C31-8 24-31 15-35c-3-3-2-7 2-11 51-49 84-114 81-216 3-9 37-8 42 1 2 45-12 83 4 116s37 66 64 87c8 13-10 26-19 32" id="K"/><path fill="#333" d="M297 52c-3 11-25 3-37 5-3 0-5-2-5-5v-332c3-11 25-3 37-5 3 0 5 2 5 5V52zM156-149H77v67c0 4 2 6 6 6h67c4 0 6-2 6-6v-67zm42 83c0 17-8 24-27 24H63c-21-1-27-5-28-25v-195c5-7 35-6 42 0v79h79v-79c5-8 35-8 42 0v196" id="L"/><path fill="#333" d="M171-189c-26 43-68 76-124 90-10-5-14-21-18-31 59-27 113-52 119-131 1-13 24-4 37-6 10 1 5 18 4 26 15 57 68 83 119 104-6 11-8 29-21 31-50-14-92-43-116-83zM325-39c9 2 10 31 0 35H12c-8-1-8-31 0-35h313" id="M"/><g id="a"><use transform="matrix(0.06172839506172839,0,0,0.06172839506172839,0,0)" xlink:href="#H"/><use transform="matrix(0.06172839506172839,0,0,0.06172839506172839,20.864197530864196,0)" xlink:href="#I"/><use transform="matrix(0.06172839506172839,0,0,0.06172839506172839,41.72839506172839,0)" xlink:href="#J"/><use transform="matrix(0.06172839506172839,0,0,0.06172839506172839,62.59259259259259,0)" xlink:href="#K"/><use transform="matrix(0.06172839506172839,0,0,0.06172839506172839,83.45679012345678,0)" xlink:href="#L"/><use transform="matrix(0.06172839506172839,0,0,0.06172839506172839,104.32098765432099,0)" xlink:href="#M"/></g><path fill="#333" d="M119-260c63 0 87 53 87 116 0 61-24 115-87 115-64 0-85-55-85-115 0-62 21-116 85-116zm0 210c83 0 84-189 0-189-48 0-59 47-59 94 0 49 12 95 59 95zm171 95c0 8-13 4-20 5-3 0-5-2-5-5v-321c0-9 12-5 20-6 3 0 5 3 5 6V45" id="N"/><path fill="#333" d="M322-111c8-1 6 9 6 17 0 2-3 5-6 4H16c-7 1-5-10-5-17-1-2 3-5 5-4h82v-58c-21-9-41-23-41-50 0-49 60-60 112-60s112 11 112 60c0 27-21 40-41 49v59h82zM168-65c51 0 113 8 113 59 0 50-60 59-113 59-52 0-111-8-111-59 0-50 61-59 111-59zm87-153c-3-35-51-39-86-39-36 0-81 4-85 39 5 34 48 38 85 38s82-4 86-38zM83-6c12 52 124 43 162 19 7-4 10-11 10-19 0-33-50-36-87-36-36 0-81 3-85 36zm132-156c-28 7-64 7-92 0v51h92v-51" id="O"/><path fill="#333" d="M141-140c22 29 48 54 75 78-2 6-7 12-12 16-31-18-54-48-77-75-28 33-57 62-97 86-6-3-16-12-11-19 66-48 118-95 135-177-33-6-78 0-115-2-7 0-4-10-5-17 0-3 2-5 5-5 46 3 109-8 142 7 4 43-23 77-40 108zm191-1c0 7 2 18-5 17h-50V45c0 8-13 4-20 5-3 0-5-2-5-5v-321c0-9 12-5 20-6 3 0 5 3 5 6v131c18 2 46-5 55 4" id="P"/><g id="b"><use transform="matrix(0.04938271604938272,0,0,0.04938271604938272,0,0)" xlink:href="#N"/><use transform="matrix(0.04938271604938272,0,0,0.04938271604938272,16.69135802469136,0)" xlink:href="#O"/><use transform="matrix(0.04938271604938272,0,0,0.04938271604938272,33.38271604938272,0)" xlink:href="#P"/></g><path fill="#fff" d="M207-130c0 38-30 54-66 59v37c35-2 75-13 106-10 0 7 6 17-3 19-47 4-88 13-139 13l-84 1c-8 1-6-9-6-17 18-11 68 0 101-5v-38c-37-4-66-22-66-59 0-41 35-59 79-59 43 0 78 18 78 59zm83 175c0 8-13 4-20 5-3 0-5-2-5-5v-321c0-9 12-5 20-6 3 0 5 3 5 6V45zM129-92c28 1 53-12 53-38s-25-38-53-38c-29 0-54 10-54 38s24 38 54 38zM28-213c0-7-2-17 5-17h191c9 0 5 10 6 18 0 3-2 4-6 4H33c-3 1-6-2-5-5zm50-40c-8 0-7-21 0-22h96c8 0 4 10 5 17 0 3-1 5-5 5H78" id="Q"/><path fill="#fff" d="M123-274c45 0 82 22 82 66s-36 65-82 65c-45 0-81-22-81-65 0-45 35-66 81-66zM265-81v-195c0-9 12-5 20-6 3 0 5 3 5 6v257c0 8-13 4-20 5-11-5-2-31-5-45h-72c-8 1-4-11-5-17 0-3 2-5 5-5h72zM66-208c0 60 115 58 115 0 0-31-26-45-58-45s-56 13-57 45zm70 170c0 7-12 5-20 5-3 1-6-2-5-5v-58l-89 2c-7 1-5-10-5-17 52-12 158-3 224-20 7-2 5 10 7 15-21 16-74 13-112 18v60zm157 60c8 1 8 24 0 22H97C57 49 70 3 70-29c0-8 13-4 20-5 12 6 2 34 5 49-1 7 2 7 8 7h190" id="R"/><g id="c"><use transform="matrix(0.04938271604938272,0,0,0.04938271604938272,0,0)" xlink:href="#Q"/><use transform="matrix(0.04938271604938272,0,0,0.04938271604938272,16.69135802469136,0)" xlink:href="#R"/></g><path fill="#fff" d="M156-255c46 0 23 59 14 87C147-100 99-51 37-19c-7 2-17-14-13-20 69-37 122-92 133-185 1-8-1-8-8-9H37c-6 0-6-20 0-22h119zm176 111c0 7 2 17-5 17h-50V45c0 8-13 4-20 5-3 0-5-2-5-5v-321c0-9 12-5 20-6 3 0 5 3 5 6v127h50c3-1 6 2 5 5" id="S"/><path fill="#fff" d="M290-111c0 9-12 5-20 6-3 0-5-3-5-6v-165c0-9 12-5 20-6 3 0 5 3 5 6v165zM116-273c50 0 86 29 86 81 0 50-35 81-86 81-50 0-84-31-84-81 0-51 34-81 84-81zm0 139c36 0 61-22 61-58 0-37-25-58-61-58s-59 22-59 58 23 58 59 58zM290 24c-1 20-7 23-28 24H111c-19 0-27-6-27-26V-81c1-6 25-7 25 0v38h156c-1-21-4-56 25-38V24zm-34 2c18-1 6-32 9-48H109c3 16-8 48 9 48h138" id="T"/><g id="d"><use transform="matrix(0.04938271604938272,0,0,0.04938271604938272,0,0)" xlink:href="#S"/><use transform="matrix(0.04938271604938272,0,0,0.04938271604938272,16.69135802469136,0)" xlink:href="#T"/></g><path fill="#fff" d="M138-253c48-1 23 61 14 90h62v-107c0-8 12-4 19-5 3 0 5 2 5 5V32c0 8-12 4-19 5-3 0-5-2-5-5v-173h-71C123-100 89-64 42-33c-10 4-13-8-16-16 53-40 107-85 114-168 1-12 1-15-11-14H42c-8 0-4-11-5-18 0-2 3-4 5-4h96zM302 45c0 8-12 4-19 5-3 0-5-2-5-5v-321c0-8 11-6 19-6 3 0 5 3 5 6V45" id="U"/><path fill="#fff" d="M110-259c0-9 14-3 21-4 3 0 4 2 4 5-1 31-2 61-8 87 13 53 49 90 81 124-4 6-8 20-17 15-30-27-56-63-75-101C99-87 75-52 41-21c-8 3-15-8-17-14 53-53 88-118 86-224zM290 45c0 8-13 4-20 5-3 0-5-2-5-5v-321c0-9 12-5 20-6 3 0 5 3 5 6V45" id="V"/><path fill="#fff" d="M175-126l51-6c3 4 8 20-1 20L21-99c-7 0-6-9-6-17 6-9 30-2 47-4v-118c-17-4-49 11-44-16 0-2 2-6 5-5h181c9-1 5 9 6 16-3 10-24 3-35 5v112zm-88 5l64-2v-115H87v117zm245-50c0 7 2 17-5 17h-50v111c0 8-13 4-20 5-3 0-5-2-5-5v-233c0-9 12-5 20-6 3 0 5 3 5 6v100h50c3-1 6 2 5 5zM288 22c8 1 8 24 0 22H104c-45 3-27-58-27-94 0-8 23-8 25 0v65c-1 7 2 7 8 7h178" id="W"/><g id="e"><use transform="matrix(0.04938271604938272,0,0,0.04938271604938272,0,0)" xlink:href="#U"/><use transform="matrix(0.04938271604938272,0,0,0.04938271604938272,16.69135802469136,0)" xlink:href="#V"/><use transform="matrix(0.04938271604938272,0,0,0.04938271604938272,33.38271604938272,0)" xlink:href="#W"/></g><path fill="#fff" d="M279-125c1 41-64 16-98 23v74h141c8-1 6 9 6 17 0 2-4 5-6 5H16c-6 0-5-10-5-17-1-3 2-6 5-5h140v-74c-37-6-99 19-99-26v-135c1-6 23-7 25 0v57h173v-56c-1-8 12-4 20-5 2-1 5 2 4 4v138zm-33 2c7-1 9-1 9-9v-52H82v52c0 7 2 8 8 9h156" id="X"/><path fill="#fff" d="M290 45c0 8-13 4-20 5-3 0-5-2-5-5v-321c0-9 12-5 20-6 3 0 5 3 5 6V45zM166-255c46-2 24 59 15 87-23 68-72 116-133 149-8 2-20-16-13-20 68-38 122-92 133-185 1-9-2-8-9-9H45c-6 0-6-20 0-22h121" id="Y"/><g id="f"><use transform="matrix(0.04938271604938272,0,0,0.04938271604938272,0,0)" xlink:href="#X"/><use transform="matrix(0.04938271604938272,0,0,0.04938271604938272,16.69135802469136,0)" xlink:href="#Y"/></g><path fill="#fff" d="M279 27c7-1 5 10 5 17 1 2-2 5-4 4H88c-35 4-27-30-27-59 0-22 7-24 29-25h154c15 1 6-23 8-35 1-7-1-8-7-8H65c-7 0-5-9-5-16 0-2 3-4 5-4h183c35-5 29 27 29 58 0 22-7 24-29 25H93c-14 0-6 23-8 35 1 6 1 9 8 8h186zm-12-188c20 2 49-5 61 4 0 8 2 18-6 17H16c-7 1-5-10-5-17-1-2 3-5 5-4h228c7-23 10-52 9-83 0-9-1-9-8-10H64c-8 1-4-11-5-17 0-3 2-4 5-4h186c51-3 22 77 17 114" id="Z"/><g id="g"><use transform="matrix(0.04938271604938272,0,0,0.04938271604938272,0,0)" xlink:href="#U"/><use transform="matrix(0.04938271604938272,0,0,0.04938271604938272,16.69135802469136,0)" xlink:href="#V"/><use transform="matrix(0.04938271604938272,0,0,0.04938271604938272,33.38271604938272,0)" xlink:href="#Z"/></g><path fill="#fff" d="M290-47c0 8-13 4-20 5-3 0-5-2-5-5v-229c0-9 12-5 20-6 3 0 5 3 5 6v229zm5 69c9 1 9 22 0 22H115c-47 4-22-61-28-98 0-7 25-9 25 0v69c0 6 2 7 9 7h174zM116-267c52 0 86 33 86 85s-33 85-86 85c-52 0-84-32-84-85s32-85 84-85zm0 147c37 0 60-23 60-62 0-40-23-62-60-62s-59 23-59 62c1 39 21 62 59 62" id="aa"/><path fill="#fff" d="M57-9c11-85 189-77 218-21 29 57-48 85-107 83C115 51 62 42 57-9zM47-154c-9 1-13-18-7-21 69-12 137-35 185-67 7-4 7-9-1-10H68c-8 1-4-11-5-17 0-3 2-4 5-4h165c37 0 43 13 20 36-12 12-30 23-51 34l98 24c9 24-16 19-36 14l-90-25c-37 16-82 28-127 36zM83-9c13 54 124 46 162 20 33-44-34-60-77-60-36 0-80 6-85 40zm239-116c7 0 6 9 6 17 0 2-3 6-6 5H16c-7 1-5-10-5-17-1-3 3-5 5-5h306" id="ab"/><g id="h"><use transform="matrix(0.04938271604938272,0,0,0.04938271604938272,0,0)" xlink:href="#aa"/><use transform="matrix(0.04938271604938272,0,0,0.04938271604938272,16.69135802469136,0)" xlink:href="#ab"/></g><path fill="#a9afb8" d="M238-95c0 69-44 99-111 99C63 4 22-25 22-93v-155h51v151c-1 38 19 59 55 60 90 1 49-130 58-211h52v153" id="ac"/><path fill="#a9afb8" d="M137-138c1-29-70-34-71-4 15 46 118 7 119 86 1 83-164 76-172 9l43-7c4 19 20 25 44 25 33 8 57-30 24-41C81-84 22-81 20-136c-2-80 154-74 161-7" id="ad"/><path fill="#a9afb8" d="M185-48c-13 30-37 53-82 52C43 2 14-33 14-96s30-98 90-98c62 0 83 45 84 108H66c0 31 8 55 39 56 18 0 30-7 34-22zm-45-69c5-46-57-63-70-21-2 6-4 13-4 21h74" id="ae"/><g id="i"><use transform="matrix(0.0728395061728395,0,0,0.0728395061728395,0,0)" xlink:href="#ac"/><use transform="matrix(0.0728395061728395,0,0,0.0728395061728395,18.86543209876543,0)" xlink:href="#ad"/><use transform="matrix(0.0728395061728395,0,0,0.0728395061728395,33.43333333333333,0)" xlink:href="#ae"/></g><path fill="#a9afb8" d="M190-63c-7 42-38 67-86 67-59 0-84-38-90-98-12-110 154-137 174-36l-49 2c-2-19-15-32-35-32-30 0-35 28-38 64-6 74 65 87 74 30" id="af"/><path fill="#a9afb8" d="M133-34C117-15 103 5 69 4 32 3 11-16 11-54c-1-60 55-63 116-61 1-26-3-47-28-47-18 1-26 9-28 27l-52-2c7-38 36-58 82-57s74 22 75 68l1 82c-1 14 12 18 25 15v27c-30 8-71 5-69-32zm-48 3c29 0 43-24 42-57-32 0-66-3-65 30 0 17 8 27 23 27" id="ag"/><g id="j"><use transform="matrix(0.0728395061728395,0,0,0.0728395061728395,0,0)" xlink:href="#af"/><use transform="matrix(0.0728395061728395,0,0,0.0728395061728395,14.5679012345679,0)" xlink:href="#ag"/><use transform="matrix(0.0728395061728395,0,0,0.0728395061728395,29.1358024691358,0)" xlink:href="#ad"/><use transform="matrix(0.0728395061728395,0,0,0.0728395061728395,43.7037037037037,0)" xlink:href="#ae"/></g><path fill="#a9afb8" d="M88-194c31-1 46 15 58 34l-1-101h50l1 261h-48c-2-10 0-23-3-31C134-8 116 4 84 4 32 4 16-41 15-95c0-56 19-97 73-99zm17 164c33 0 40-30 41-66 1-37-9-64-41-64s-38 30-39 65c0 43 13 65 39 65" id="ah"/><path fill="#a9afb8" d="M25-224v-37h50v37H25zM25 0v-190h50V0H25" id="ai"/><path fill="#a9afb8" d="M195-6C206 82 75 100 31 46c-4-6-6-13-8-21l49-6c3 16 16 24 34 25 40 0 42-37 40-79-11 22-30 35-61 35-53 0-70-43-70-97 0-56 18-96 73-97 30 0 46 14 59 34l2-30h47zm-90-29c32 0 41-27 41-63 0-35-9-62-40-62-32 0-39 29-40 63 0 36 9 62 39 62" id="aj"/><path fill="#a9afb8" d="M135-150c-39-12-60 13-60 57V0H25l-1-190h47c2 13-1 29 3 40 6-28 27-53 61-41v41" id="ak"/><path fill="#a9afb8" d="M220-157c-53 9-28 100-34 157h-49v-107c1-27-5-49-29-50C55-147 81-57 75 0H25l-1-190h47c2 12-1 28 3 38 10-53 101-56 108 0 13-22 24-43 59-42 82 1 51 116 57 194h-49v-107c-1-25-5-48-29-50" id="al"/><g id="k"><use transform="matrix(0.0728395061728395,0,0,0.0728395061728395,0,0)" xlink:href="#ah"/><use transform="matrix(0.0728395061728395,0,0,0.0728395061728395,15.95185185185185,0)" xlink:href="#ai"/><use transform="matrix(0.0728395061728395,0,0,0.0728395061728395,23.235802469135802,0)" xlink:href="#ag"/><use transform="matrix(0.0728395061728395,0,0,0.0728395061728395,37.803703703703704,0)" xlink:href="#aj"/><use transform="matrix(0.0728395061728395,0,0,0.0728395061728395,53.75555555555555,0)" xlink:href="#ak"/><use transform="matrix(0.0728395061728395,0,0,0.0728395061728395,63.953086419753085,0)" xlink:href="#ag"/><use transform="matrix(0.0728395061728395,0,0,0.0728395061728395,78.52098765432099,0)" xlink:href="#al"/></g><path fill="#a9afb8" d="M232-145h46v-131c0-8 10-6 18-6 3 0 5 3 5 6V45c0 8-11 4-18 5-3 0-5-2-5-5v-169h-46V32c0 8-12 4-19 5-3 0-5-2-5-5v-302c0-8 12-4 19-5 3 0 5 2 5 5v125zm-118 22C90-87 62-55 26-31c-6-3-16-12-11-19 57-47 102-97 116-179-28-6-67 0-98-2-6 0-7-22 1-22 40 0 95-7 124 6 5 36-16 73-30 101 14 32 42 63 64 88-2 7-10 19-17 13-25-21-43-50-61-78" id="am"/><path fill="#a9afb8" d="M118-268c48 0 83 21 83 65 0 40-31 59-70 64v41l99-5c9-3 6 9 7 15 1 3-1 5-4 5-61 10-141 6-212 7-8 1-6-9-6-17 20-10 59-1 91-4v-42c-39-4-68-23-68-64 0-45 34-64 80-65zm-56 65c0 58 114 54 114 0 0-31-27-42-58-42s-56 11-56 42zm270 47c0 7 2 17-5 17h-50v100c0 8-13 4-20 5-3 0-5-2-5-5v-237c0-9 12-5 20-6 3 0 5 3 5 6v115h50c3-1 6 2 5 5zM288 22c8 1 8 24 0 22H103C59 48 75-8 75-43c0-8 13-4 20-5 3 0 5 2 5 5v58c0 6 2 7 8 7h180" id="an"/><g id="l"><use transform="matrix(0.04248971193415638,0,0,0.04248971193415638,0,0)" xlink:href="#am"/><use transform="matrix(0.04248971193415638,0,0,0.04248971193415638,14.361522633744855,0)" xlink:href="#an"/></g><path fill="#a9afb8" d="M192-132c-1 19-7 22-27 23H65c-21 1-28-6-27-26v-129c1-7 23-8 25 0v56h104c5-22-16-67 20-61 2 0 5 3 5 5v132zM73-48c-9-1-9-22 0-22h177c23 0 26 6 27 28v89c0 8-13 4-20 5-3 0-5-2-5-5v-88c1-7-2-7-8-7H73zm259-135c0 7 3 17-5 17h-50v71c0 8-13 4-20 5-3 0-5-2-5-5v-181c0-9 12-5 20-6 3 0 5 3 5 6v89c18 2 46-5 55 4zm-173 53c6-1 9-1 8-9v-48H63v48c-1 8 1 8 8 9h88" id="ao"/><use transform="matrix(0.04248971193415638,0,0,0.04248971193415638,0,0)" xlink:href="#ao" id="m"/><path fill="#a9afb8" d="M32 76v-337h29V76H32" id="ap"/><use transform="matrix(0.04248971193415638,0,0,0.04248971193415638,0,0)" xlink:href="#ap" id="n"/><path fill="#a9afb8" d="M63-220v92h138v28H63V0H30v-248h175v28H63" id="aq"/><path fill="#a9afb8" d="M100-194c63 0 86 42 84 106H49c0 40 14 67 53 68 26 1 43-12 49-29l28 8c-11 28-37 45-77 45C44 4 14-33 15-96c1-61 26-98 85-98zm52 81c6-60-76-77-97-28-3 7-6 17-6 28h103" id="ar"/><path fill="#a9afb8" d="M115-194c53 0 69 39 70 98 0 66-23 100-70 100C84 3 66-7 56-30L54 0H23l1-261h32v101c10-23 28-34 59-34zm-8 174c40 0 45-34 45-75 0-40-5-75-45-74-42 0-51 32-51 76 0 43 10 73 51 73" id="as"/><path fill="#a9afb8" d="M114-163C36-179 61-72 57 0H25l-1-190h30c1 12-1 29 2 39 6-27 23-49 58-41v29" id="at"/><path fill="#a9afb8" d="M84 4C-5 8 30-112 23-190h32v120c0 31 7 50 39 49 72-2 45-101 50-169h31l1 190h-30c-1-10 1-25-2-33-11 22-28 36-60 37" id="au"/><path fill="#a9afb8" d="M141-36C126-15 110 5 73 4 37 3 15-17 15-53c-1-64 63-63 125-63 3-35-9-54-41-54-24 1-41 7-42 31l-33-3c5-37 33-52 76-52 45 0 72 20 72 64v82c-1 20 7 32 28 27v20c-31 9-61-2-59-35zM48-53c0 20 12 33 32 33 41-3 63-29 60-74-43 2-92-5-92 41" id="av"/><path fill="#a9afb8" d="M179-190L93 31C79 59 56 82 12 73V49c39 6 53-20 64-50L1-190h34L92-34l54-156h33" id="aw"/><g id="o"><use transform="matrix(0.04248971193415638,0,0,0.04248971193415638,0,0)" xlink:href="#aq"/><use transform="matrix(0.04248971193415638,0,0,0.04248971193415638,9.305246913580246,0)" xlink:href="#ar"/><use transform="matrix(0.04248971193415638,0,0,0.04248971193415638,17.80318930041152,0)" xlink:href="#as"/><use transform="matrix(0.04248971193415638,0,0,0.04248971193415638,26.301131687242794,0)" xlink:href="#at"/><use transform="matrix(0.04248971193415638,0,0,0.04248971193415638,31.357407407407408,0)" xlink:href="#au"/><use transform="matrix(0.04248971193415638,0,0,0.04248971193415638,39.85534979423868,0)" xlink:href="#av"/><use transform="matrix(0.04248971193415638,0,0,0.04248971193415638,48.35329218106995,0)" xlink:href="#at"/><use transform="matrix(0.04248971193415638,0,0,0.04248971193415638,53.40956790123455,0)" xlink:href="#aw"/></g><path fill="#a9afb8" d="M101-251c82-7 93 87 43 132L82-64C71-53 59-42 53-27h129V0H18c2-99 128-94 128-182 0-28-16-43-45-43s-46 15-49 41l-32-3c6-41 34-60 81-64" id="ax"/><path fill="#a9afb8" d="M68-38c1 34 0 65-14 84H32c9-13 17-26 17-46H33v-38h35" id="ay"/><g id="p"><use transform="matrix(0.04248971193415638,0,0,0.04248971193415638,0,0)" xlink:href="#ax"/><use transform="matrix(0.04248971193415638,0,0,0.04248971193415638,8.497942386831275,0)" xlink:href="#ay"/></g><path fill="#a9afb8" d="M101-251c68 0 85 55 85 127S166 4 100 4C33 4 14-52 14-124c0-73 17-127 87-127zm-1 229c47 0 54-49 54-102s-4-102-53-102c-51 0-55 48-55 102 0 53 5 102 54 102" id="az"/><path fill="#a9afb8" d="M126-127c33 6 58 20 58 59 0 88-139 92-164 29-3-8-5-16-6-25l32-3c6 27 21 44 54 44 32 0 52-15 52-46 0-38-36-46-79-43v-28c39 1 72-4 72-42 0-27-17-43-46-43-28 0-47 15-49 41l-32-3c6-42 35-63 81-64 48-1 79 21 79 65 0 36-21 52-52 59" id="aA"/><g id="q"><use transform="matrix(0.04248971193415638,0,0,0.04248971193415638,0,0)" xlink:href="#ax"/><use transform="matrix(0.04248971193415638,0,0,0.04248971193415638,8.497942386831275,0)" xlink:href="#az"/><use transform="matrix(0.04248971193415638,0,0,0.04248971193415638,16.99588477366255,0)" xlink:href="#ax"/><use transform="matrix(0.04248971193415638,0,0,0.04248971193415638,25.493827160493822,0)" xlink:href="#aA"/></g><path fill="#fff" d="M16-6c-8-1-8-24 0-22h140v-63c-36-6-103 19-99-27 3-31-12-71 28-71h163c7 0 7-1 7-8v-38c0-7 0-8-7-8H62c-8 1-4-11-5-18-1-2 3-5 5-4h190c38-4 28 39 28 72 0 22-7 24-29 25H89c-16 2-5 32-8 47 0 6 2 9 8 9h194c7 0 5 10 5 17 0 2-3 4-5 4H181v63h141c8-1 6 9 6 17 0 2-4 5-6 5H16" id="aB"/><path fill="#fff" d="M60-232c-8-1-7-22 0-22h193c57 6 16 103 20 161l-9 65h58c8-1 6 9 6 17 0 2-4 5-6 5H16c-6 0-5-10-5-17-1-3 2-6 5-5h224c10-57 19-130 16-197 1-7-2-7-8-7H60" id="aC"/><path fill="#fff" d="M290-47c0 8-13 4-20 5-3 0-5-2-5-5v-229c0-9 12-5 20-6 3 0 5 3 5 6v229zm5 69c9 1 9 22 0 22H115c-47 4-22-61-28-98 0-7 25-9 25 0v69c0 6 2 7 9 7h174zM116-267c52 0 86 33 86 85s-33 85-86 85c-52 0-84-32-84-85s32-85 84-85zm0 147c37 0 60-23 60-62 0-40-23-62-60-62s-59 23-59 62c1 39 21 62 59 62" id="aD"/><g id="r"><use transform="matrix(0.04938271604938272,0,0,0.04938271604938272,0,0)" xlink:href="#aB"/><use transform="matrix(0.04938271604938272,0,0,0.04938271604938272,16.69135802469136,0)" xlink:href="#aC"/><use transform="matrix(0.04938271604938272,0,0,0.04938271604938272,33.38271604938272,0)" xlink:href="#aD"/></g><g id="s"><use transform="matrix(0.04938271604938272,0,0,0.04938271604938272,0,0)" xlink:href="#aB"/><use transform="matrix(0.04938271604938272,0,0,0.04938271604938272,16.69135802469136,0)" xlink:href="#aC"/><use transform="matrix(0.04938271604938272,0,0,0.04938271604938272,33.38271604938272,0)" xlink:href="#aD"/></g><path fill="#fff" d="M292 31c7-1 5 9 5 16 1 2-2 5-4 4H112C78 55 84 26 84-3c0-21 7-25 29-26h144c15 3 6-18 8-29 1-8-2-8-8-8H89c-7 1-5-10-5-17-1-2 3-5 5-4h172c32-4 30 24 29 54 0 22-7 24-29 25H117c-14-2-6 18-8 30 0 6 2 9 8 9h175zM88-197c17-23 13-58 24-79 7 2 20-3 20 6 0 17-2 32-6 46 14 39 49 62 82 82-2 8-5 21-14 17-34-14-62-40-80-70-19 33-44 59-79 79-6-3-19-14-11-20 26-18 46-38 64-61zm202 84c0 8-13 4-20 5-3 0-5-2-5-5v-163c0-9 12-5 20-6 3 0 5 3 5 6v163" id="aE"/><path fill="#fff" d="M150-71c14 1 31-8 41-3 0 6 6 17-2 18-52 8-110 11-173 10-6 0-5-10-5-17 4-9 26-2 41-4v-163c-16-3-43 10-38-16 0-2 2-6 5-5h155c9-1 4 10 5 16-1 10-20 3-29 5v159zm82-80h46v-125c0-8 11-6 19-6 3 0 5 3 5 6V45c0 8-12 4-19 5-3 0-5-2-5-5v-174h-46V32c0 8-12 4-19 5-3 0-5-2-5-5v-302c0-8 12-4 19-5 3 0 5 2 5 5v119zM76-67l50-2v-161H76v163" id="aF"/><g id="t"><use transform="matrix(0.04938271604938272,0,0,0.04938271604938272,0,0)" xlink:href="#aE"/><use transform="matrix(0.04938271604938272,0,0,0.04938271604938272,16.69135802469136,0)" xlink:href="#aF"/></g><path fill="#fff" d="M83-14c3-91 204-88 208 0-5 89-204 91-208 0zm25 1c7 62 152 56 158 0-7-61-152-63-158 0zm27-147c-29 24-61 57-102 64-2-6-11-13-5-19 58-28 105-63 131-118 3-6 0-9-6-9H47c-6 0-7-20 0-22 45 3 106-8 139 7 8 31-19 60-36 80 17 21 48 34 73 49-4 7-4 18-15 18-27-13-53-29-73-50zm130-38v-78c0-9 12-5 20-6 3 0 5 3 5 6v189c0 8-13 4-20 5-3 0-5-2-5-5v-89h-67c-6 0-7-20 0-22h67" id="aG"/><path fill="#fff" d="M292 31c7-1 5 9 5 16 1 2-2 5-4 4H112C79 55 84 28 84-1c0-21 7-24 29-25h144c13 2 6-16 8-27 1-8-2-8-8-8H89c-7 1-5-10-5-17-1-2 3-5 5-4h172c30-3 31 21 29 51 0 22-8 26-29 26H117c-14-3-6 17-8 27 0 6 2 9 8 9h175zm-93-175c3 5 9 21-1 21-40 9-82 10-131 10-37 0-25-36-27-66-2-44 64-20 100-25 14-2 6-24 8-36 0-7-2-8-8-9H46c-8 1-4-11-5-17 0-3 2-4 5-4h98c36-6 27 31 28 62 2 44-64 20-100 25-14 2-4 28-7 41 23 22 93-1 134-2zm66-94c3-19-11-51 20-44 3 0 5 3 5 6v171c0 8-13 4-20 5-3 0-5-2-5-5v-54h-63c-8 1-4-11-5-17 0-3 2-4 5-4h63v-37h-63c-8 1-4-11-5-17 0-3 2-4 5-4h63" id="aH"/><g id="u"><use transform="matrix(0.04938271604938272,0,0,0.04938271604938272,0,0)" xlink:href="#aG"/><use transform="matrix(0.04938271604938272,0,0,0.04938271604938272,16.69135802469136,0)" xlink:href="#aH"/></g><path fill="#fff" d="M112 48C67 52 84-9 84-46c0-21 7-26 28-26h150c46-6 28 57 28 94 0 21-7 26-28 26H112zm153-89c0-8-2-8-9-9H118c-7 1-9 1-9 9v58c0 8 2 8 9 9h138c7-1 9-1 9-9v-58zm-74-219c12 41-15 80-40 108-23 26-57 47-102 66-11 4-12-12-14-19 64-27 117-65 133-129 1-7-2-10-9-10H48c-6 0-7-20 0-22 46 3 108-7 143 6zm74 72v-88c0-9 12-5 20-6 3 0 5 3 5 6v180c0 8-13 4-20 5-3 0-5-2-5-5v-71h-73c-8 1-4-11-5-17 0-3 2-4 5-4h73" id="aI"/><path fill="#fff" d="M232-96c0 8-12 4-19 5-3 0-5-2-5-5v-174c0-8 12-4 19-5 3 0 5 2 5 5v79h46v-85c0-8 11-6 19-6 3 0 5 3 5 6v185c0 8-12 4-19 5-3 0-5-2-5-5v-78h-46v73zM86-45c-7-2-8-22 0-22h188c50-2 20 74 28 114 0 8-13 4-20 5-3 0-5-2-5-5v-85c0-6-2-7-8-7H86zm-64-75c45-30 68-88 77-149 7 2 21-3 21 6 0 18-3 35-8 52 14 35 37 66 70 82 6 7-5 17-10 21-29-15-55-45-71-73-16 34-38 60-68 82-7-4-18-14-11-21" id="aJ"/><g id="v"><use transform="matrix(0.04938271604938272,0,0,0.04938271604938272,0,0)" xlink:href="#aI"/><use transform="matrix(0.04938271604938272,0,0,0.04938271604938272,16.69135802469136,0)" xlink:href="#aJ"/></g><g id="w"><use transform="matrix(0.04938271604938272,0,0,0.04938271604938272,0,0)" xlink:href="#U"/><use transform="matrix(0.04938271604938272,0,0,0.04938271604938272,16.69135802469136,0)" xlink:href="#V"/><use transform="matrix(0.04938271604938272,0,0,0.04938271604938272,33.38271604938272,0)" xlink:href="#Z"/></g><path fill="#fff" d="M217-263c2-6 22-4 25 2 0 12-2 24-4 35 15 42 44 72 77 96 6 5-5 24-15 18-28-17-56-47-71-79-15 42-42 73-78 99-7-3-11-10-15-15 8-10 19-14 27-24-17-16-38-40-49-64-15 36-43 64-76 85-6-4-18-11-13-19 48-30 76-68 80-133 2-5 22-5 24 2-11 55 21 85 50 111 24-30 36-66 38-114zM322-28c8-1 6 9 6 17 0 2-4 5-6 5H16c-6 0-5-10-5-17-1-3 2-6 5-5h306zM222-210v1-1" id="aK"/><path fill="#fff" d="M58-38C53-5 46 26 28 46H7C19 32 27 18 32 0H17l7-38h34" id="aL"/><g id="x"><use transform="matrix(0.04938271604938272,0,0,0.04938271604938272,0,0)" xlink:href="#aK"/><use transform="matrix(0.04938271604938272,0,0,0.04938271604938272,16.69135802469136,0)" xlink:href="#Y"/><use transform="matrix(0.04938271604938272,0,0,0.04938271604938272,33.38271604938272,0)" xlink:href="#aL"/></g><path fill="#fff" d="M181 43c0 7-12 5-20 5-3 1-6-2-5-5V-75H16c-7 1-5-9-5-16-1-3 2-6 5-5h306c8-1 6 9 6 17 0 2-3 5-6 4H181V43zM35-156c52-26 112-54 122-120 2-7 24-5 25 2l-4 18c19 50 68 76 122 92 4 6 0 25-11 22-53-13-97-45-123-86-24 43-65 69-117 90-11 2-11-9-14-18" id="aM"/><g id="y"><use transform="matrix(0.04938271604938272,0,0,0.04938271604938272,0,0)" xlink:href="#aM"/><use transform="matrix(0.04938271604938272,0,0,0.04938271604938272,16.69135802469136,0)" xlink:href="#aG"/><use transform="matrix(0.04938271604938272,0,0,0.04938271604938272,33.38271604938272,0)" xlink:href="#aL"/></g><path fill="#fff" d="M115-183c-18 39-46 70-83 92-7-4-17-13-11-21 52-31 85-80 86-155 0-11 13-4 21-5 11 12 0 40-2 54 12 45 46 73 82 95-2 7-8 12-11 18-36-14-63-45-82-78zM73-48c-9-1-9-22 0-22h177c23 0 26 6 27 28v89c0 8-13 4-20 5-3 0-5-2-5-5v-88c1-7-2-7-8-7H73zm254-142c8 0 7 22 0 22h-50v73c0 8-13 4-20 5-3 0-5-2-5-5v-181c0-9 12-5 20-6 3 0 5 3 5 6v86h50" id="aN"/><path fill="#fff" d="M113-121C89-86 62-54 26-31c-6-3-16-12-11-19 57-47 102-97 116-179-28-6-67 0-98-2-6 0-7-22 1-22 40 0 95-7 124 6 4 38-18 73-31 104 17 31 39 60 65 81 3 9-6 14-12 18-27-19-49-49-67-77zm49-19c-8 0-7-22 0-21h52v-109c0-8 12-4 19-5 3 0 5 2 5 5V32c0 8-12 4-19 5-3 0-5-2-5-5v-172h-52zM302 45c0 8-12 4-19 5-3 0-5-2-5-5v-321c0-8 11-6 19-6 3 0 5 3 5 6V45" id="aO"/><g id="z"><use transform="matrix(0.04938271604938272,0,0,0.04938271604938272,0,0)" xlink:href="#aN"/><use transform="matrix(0.04938271604938272,0,0,0.04938271604938272,16.69135802469136,0)" xlink:href="#aO"/></g><path fill="#fff" d="M232-191h46v-85c0-8 11-6 19-6 3 0 5 3 5 6v207c0 8-12 4-19 5-3 0-5-2-5-5v-100h-46v79c0 8-12 4-19 5-3 0-5-2-5-5v-180c0-8 12-4 19-5 3 0 5 2 5 5v79zm-57 55c8-2 6 10 9 15 1 3-1 5-5 6-36 9-76 12-122 11-22 0-27-9-28-30v-101c1-21 7-24 28-25h101c7 0 3 11 4 17 0 3-1 4-4 4H61c-6 1-7 1-7 8v96c0 8 2 8 9 9 38 1 81-4 112-10zM57 29C107 7 165-13 173-75c5-9 31-3 23 12 18 50 68 72 119 90-1 32-34 12-51 5-33-16-61-37-79-67-23 41-66 69-116 83-10 3-10-10-12-19" id="aP"/><g id="A"><use transform="matrix(0.04938271604938272,0,0,0.04938271604938272,0,0)" xlink:href="#aP"/><use transform="matrix(0.04938271604938272,0,0,0.04938271604938272,16.69135802469136,0)" xlink:href="#Z"/></g><g id="B"><use transform="matrix(0.04938271604938272,0,0,0.04938271604938272,0,0)" xlink:href="#X"/><use transform="matrix(0.04938271604938272,0,0,0.04938271604938272,16.69135802469136,0)" xlink:href="#Y"/><use transform="matrix(0.04938271604938272,0,0,0.04938271604938272,33.38271604938272,0)" xlink:href="#aL"/></g><g id="C"><use transform="matrix(0.04938271604938272,0,0,0.04938271604938272,0,0)" xlink:href="#aK"/><use transform="matrix(0.04938271604938272,0,0,0.04938271604938272,16.69135802469136,0)" xlink:href="#Y"/><use transform="matrix(0.04938271604938272,0,0,0.04938271604938272,33.38271604938272,0)" xlink:href="#aL"/></g><g id="D"><use transform="matrix(0.04938271604938272,0,0,0.04938271604938272,0,0)" xlink:href="#aM"/><use transform="matrix(0.04938271604938272,0,0,0.04938271604938272,16.69135802469136,0)" xlink:href="#aG"/><use transform="matrix(0.04938271604938272,0,0,0.04938271604938272,33.38271604938272,0)" xlink:href="#aL"/></g><path fill="#333" d="M18-115v-9l167-82v18L43-120l142 69v18" id="aQ"/><path fill="#333" d="M47-200c-23 0-25-39 0-38 13 0 18 7 20 19-1 11-8 19-20 19zM65-12l28 4v8H8v-8l28-4v-141l-24-4v-8h53v153" id="aR"/><path fill="#333" d="M125-118c4-37-41-34-68-26v132l23 4v8H8C5-13 21-9 28-12v-141c-7-3-23 1-20-12h47l2 13c31-23 98-29 98 31v109c7 3 23-1 20 12h-72v-8l22-4v-106" id="aS"/><path fill="#333" d="M45-84c0 64 52 80 104 63 1 25-30 25-55 25-56 0-80-32-80-88 0-76 62-98 131-80v46h-10c-5-15-4-31-23-35-47-10-67 21-67 69" id="aT"/><path fill="#333" d="M65-12l28 4v8H7v-8l28-4v-226l-28-4v-8h58v238" id="aU"/><path fill="#333" d="M124-13C89 8 26 15 26-45v-108c-8-3-24 2-21-12h50v118c-3 37 42 32 69 25v-131l-25-4v-8h54v153c8 3 24-2 21 12h-48" id="aV"/><path fill="#333" d="M13-81c0-71 46-101 114-85l-1-72-28-4v-8h57v238c8 3 24-2 21 12h-47l-2-12C80 23 13-1 13-81zm77-74c-37 1-44 33-45 74 0 38 9 66 45 66 14 0 27-3 36-7v-130c-10-1-24-3-36-3" id="aW"/><path fill="#333" d="M84-170c49 0 66 33 63 87H46c-8 60 38 80 95 63v10C128-2 108 4 88 4 34 4 14-29 14-84c-1-54 22-86 70-86zm33 73c12-57-57-82-69-24-1 7-2 15-2 24h71" id="aX"/><path fill="#333" d="M18-33v-18l142-69-142-68v-18l168 82v9" id="aY"/><g id="E"><use transform="matrix(0.05,0,0,0.05,0,0)" xlink:href="#aQ"/><use transform="matrix(0.05,0,0,0.05,10.15,0)" xlink:href="#aQ"/><use transform="matrix(0.05,0,0,0.05,20.3,0)" xlink:href="#aR"/><use transform="matrix(0.05,0,0,0.05,25.3,0)" xlink:href="#aS"/><use transform="matrix(0.05,0,0,0.05,34.3,0)" xlink:href="#aT"/><use transform="matrix(0.05,0,0,0.05,42.25,0)" xlink:href="#aU"/><use transform="matrix(0.05,0,0,0.05,47.25,0)" xlink:href="#aV"/><use transform="matrix(0.05,0,0,0.05,56.25,0)" xlink:href="#aW"/><use transform="matrix(0.05,0,0,0.05,65.25,0)" xlink:href="#aX"/><use transform="matrix(0.05,0,0,0.05,73.2,0)" xlink:href="#aY"/><use transform="matrix(0.05,0,0,0.05,83.35000000000001,0)" xlink:href="#aY"/></g><path fill="#333" d="M156-12c7 3 23-1 20 12h-75v-8l22-4-38-58-45 58 23 4v8H3v-8l19-3 55-71-48-71c-7-3-23 1-20-12h75v8l-22 4 32 48 37-48-23-4v-8h59v8l-19 3-46 60" id="aZ"/><path fill="#333" d="M54-38c-1 25 24 26 44 20v12C71 10 25 9 25-35v-115H4c-2-14 14-10 21-15l18-38h11v38h38v15H54v112" id="ba"/><g id="F"><use transform="matrix(0.05,0,0,0.05,0,0)" xlink:href="#aQ"/><use transform="matrix(0.05,0,0,0.05,10.15,0)" xlink:href="#aQ"/><use transform="matrix(0.05,0,0,0.05,20.3,0)" xlink:href="#aX"/><use transform="matrix(0.05,0,0,0.05,28.25,0)" xlink:href="#aZ"/><use transform="matrix(0.05,0,0,0.05,37.25,0)" xlink:href="#ba"/><use transform="matrix(0.05,0,0,0.05,42.25,0)" xlink:href="#aX"/><use transform="matrix(0.05,0,0,0.05,50.2,0)" xlink:href="#aS"/><use transform="matrix(0.05,0,0,0.05,59.2,0)" xlink:href="#aW"/><use transform="matrix(0.05,0,0,0.05,68.2,0)" xlink:href="#aY"/><use transform="matrix(0.05,0,0,0.05,78.35000000000001,0)" xlink:href="#aY"/></g><path d="M24-248c120-7 223 5 221 122C244-46 201 0 124 0H24v-248zM76-40c74 7 117-18 117-86 0-67-45-88-117-82v168" id="bb"/><path d="M182-130c37 4 62 22 62 59C244 23 116-4 24 0v-248c84 5 203-23 205 63 0 31-19 50-47 55zM76-148c40-3 101 13 101-30 0-44-60-28-101-31v61zm0 110c48-3 116 14 116-37 0-48-69-32-116-35v72" id="bc"/><g id="G"><use transform="matrix(0.05,0,0,0.05,0,0)" xlink:href="#bb"/><use transform="matrix(0.05,0,0,0.05,12.950000000000001,0)" xlink:href="#bc"/></g></defs></g></svg>